<svg xmlns="http://www.w3.org/2000/svg" version="1.1" xmlns:xlink="http://www.w3.org/1999/xlink" xmlns:svgjs="http://svgjs.dev/svgjs" width="1000" height="1000" viewBox="0 0 1000 1000"><rect width="1000" height="1000" fill="#000000"></rect><g transform="matrix(0.7,0,0,0.7,149.57575757575756,282.14774574898786)"><svg viewBox="0 0 396 247" data-background-color="#ffffff" preserveAspectRatio="xMidYMid meet" height="623" width="1000" xmlns="http://www.w3.org/2000/svg" xmlns:xlink="http://www.w3.org/1999/xlink"><g id="tight-bounds" transform="matrix(1,0,0,1,0.2400000000000091,-0.09999999999999432)"><svg viewBox="0 0 395.52 247.2" height="247.2" width="395.52"><g><svg></svg></g><g><svg viewBox="0 0 395.52 247.2" height="247.2" width="395.52"><g><g><path xmlns="http://www.w3.org/2000/svg" d="M193.295 247.212l-31.65-67.125 32.923 0 5.441 11.866 5.479-11.866 19.213 0zM96.07 41.013c0 0-0.319 8.7-0.957 26.1l-18.854 0 2.757-49.399-23.098-3.76v-13.966h56.066l30.78 67.125h-34.387zM89.155 229.486l22.829 3.76v13.966h-68.084v-13.966l23.299-3.76 2.756-49.399 21.012 0c-0.558 15.217-1.163 31.684-1.812 49.399zM288.639-0.012h51.366v13.966l-24.642 3.76c0.808 16.5 1.641 32.966 2.497 49.399l-28.28 0-0.941-23.683-11.08 23.683-19.911 0zM326.374 229.486l25.246 3.76v13.966h-80.169v-13.966l24.574-3.76-1.961-49.399h29.871c0.848 16.501 1.661 32.967 2.439 49.399z" fill="#000000" fill-rule="nonzero" stroke="none" stroke-width="1" stroke-linecap="butt" stroke-linejoin="miter" stroke-miterlimit="10" stroke-dasharray="" stroke-dashoffset="0" font-family="none" font-weight="none" font-size="none" text-anchor="none" style="mix-blend-mode: normal" data-fill-palette-color="tertiary"></path></g></g><g transform="matrix(1,0,0,1,0,79.87417085427136)"><svg viewBox="0 0 395.52 87.45165829145728" height="87.45165829145728" width="395.52"><g><svg viewBox="0 0 395.52 87.45165829145728" height="87.45165829145728" width="395.52"><g><svg viewBox="0 0 395.52 87.45165829145728" height="87.45165829145728" width="395.52"><g><svg viewBox="0 0 395.52 87.45165829145728" height="87.45165829145728" width="395.52"><g><svg viewBox="0 0 395.52 87.45165829145728" height="87.45165829145728" width="395.52"><g><svg viewBox="0 0 395.52 87.45165829145728" height="87.45165829145728" width="395.52"><g transform="matrix(1,0,0,1,0,0)"><svg width="395.52" viewBox="2.119999885559082 -36.81999969482422 228.3300018310547 50.48999786376953" height="87.45165829145728" data-palette-color="#000000"><path d="M24.37 0L9.89-30.71Q9.89-30.71 8.86-2.64L8.86-2.64 12.26-2.08 12.26 0 2.12 0 2.12-2.08 5.59-2.64 7.35-34.18 3.91-34.74 3.91-36.82 12.26-36.82 25.37-8.23 38.57-36.82 46.22-36.82 46.22-34.74 42.55-34.18Q42.94-26.22 43.38-18.33 43.82-10.45 44.19-2.64L44.19-2.64 47.95-2.08 47.95 0 36.01 0 36.01-2.08 39.67-2.64 38.57-30.35 24.37 0ZM52.56-11.87L52.56-11.87Q52.56-14.67 53.53-17.09 54.49-19.51 56.15-21.19L56.15-21.19Q59.57-24.73 64.57-24.73L64.57-24.73Q70.38-24.73 73.65-21.29L73.65-21.29Q76.76-17.99 76.76-12.67L76.76-12.67Q76.76-6.74 73.24-3.03L73.24-3.03Q69.82 0.56 64.79 0.56L64.79 0.56Q59.06 0.56 55.71-2.98L55.71-2.98Q52.56-6.3 52.56-11.87ZM58.81-19.15Q57.83-17.9 57.33-16.21 56.83-14.53 56.83-12.56 56.83-10.6 57.29-8.73 57.74-6.86 58.69-5.42L58.69-5.42Q60.79-2.29 64.74-2.29L64.74-2.29Q68.45-2.29 70.51-4.74L70.51-4.74Q72.53-7.13 72.53-11.21L72.53-11.21Q72.53-18.43 68.41-20.92L68.41-20.92Q66.87-21.85 64.77-21.85 62.67-21.85 61.23-21.13 59.79-20.41 58.81-19.15ZM95.65-21.56L95.65-21.56Q91.91-21.56 88.15-18.97L88.15-18.97 88.15-2.59 91.25-2.03 91.25 0 81 0 81-2.03 84.17-2.59 84.17-20.36 81-20.92 81-22.95 87.74-24.73 87.74-21.56Q92.67-24.73 96.89-24.73L96.89-24.73Q101.97-24.73 103.51-20.51L103.51-20.51Q104.02-19.09 104.02-17.19L104.02-17.19 104.02-2.59 107.12-2.03 107.12 0 96.89 0 96.89-2.03 100.04-2.59 100.04-16.72Q100.04-21.56 95.65-21.56ZM134.22-20.58L131.05-20.58Q132.19-18.73 132.19-15.97L132.19-15.97Q132.19-12.08 128.29-9.08L128.29-9.08Q126.58-7.76 124.28-6.88L124.28-6.88 120.55-5.47Q117.86-4.47 117.51-4.09 117.16-3.71 117.16-3.48 117.16-3.25 117.4-3.03 117.64-2.81 118.21-2.61L118.21-2.61Q119.55-2.15 121.97-2.15 124.38-2.15 126.48-1.89 128.58-1.64 130.19-0.93L130.19-0.93Q133.71 0.66 133.71 4.49L133.71 4.49Q133.71 7.08 131.68 9.3L131.68 9.3Q128.87 12.35 123.72 13.38L123.72 13.38Q122.18 13.67 120.33 13.67 118.47 13.67 116.55 13.28 114.62 12.89 113.18 12.06L113.18 12.06Q110.12 10.33 110.12 6.86L110.12 6.86Q110.12 4.17 112.39 2.73L112.39 2.73 113.98 1.78Q114.64 1.44 115.46 1.27 116.28 1.1 117.11 0.88L117.11 0.88Q114.47 0.37 113.47-1.22L113.47-1.22Q113.13-1.78 113.13-2.4 113.13-3.03 113.37-3.47 113.62-3.91 114.25-4.35 114.89-4.79 116.01-5.32L116.01-5.32 118.91-6.69Q116.62-7.13 114.62-8.81L114.62-8.81Q111.86-11.13 111.86-15.36L111.86-15.36Q111.86-19.41 115.42-22.22L115.42-22.22Q118.57-24.73 122.36-24.73 126.14-24.73 128.9-22.95L128.9-22.95Q130.66-24.17 134.71-24.68L134.71-24.68 135.37-23.93 134.22-20.58ZM114.54 5.46Q114.4 6.13 114.4 7.15 114.4 8.18 115.15 9.05 115.91 9.91 117.08 10.38L117.08 10.38Q118.99 11.13 121.39 11.13 123.8 11.13 125.07 10.74 126.34 10.35 127.29 9.62L127.29 9.62Q129.44 8.01 129.44 5.42L129.44 5.42Q129.44 2.17 124.85 1.76L124.85 1.76Q123.5 1.64 122.04 1.64L122.04 1.64Q117.84 1.64 115.37 4.1L115.37 4.1Q114.69 4.79 114.54 5.46ZM116.4-18.95L116.4-18.95Q115.89-17.75 115.89-16.03 115.89-14.31 116.4-13.04 116.91-11.77 117.79-10.89L117.79-10.89Q119.57-9.11 122.38-9.11L122.38-9.11Q126.04-9.11 127.6-12.18L127.6-12.18Q128.19-13.33 128.19-15.03 128.19-16.72 127.68-18.04 127.17-19.36 126.29-20.29L126.29-20.29Q124.46-22.22 121.7-22.22L121.7-22.22Q117.79-22.22 116.4-18.95ZM140.1-11.87L140.1-11.87Q140.1-14.67 141.07-17.09 142.03-19.51 143.69-21.19L143.69-21.19Q147.11-24.73 152.11-24.73L152.11-24.73Q157.92-24.73 161.2-21.29L161.2-21.29Q164.3-17.99 164.3-12.67L164.3-12.67Q164.3-6.74 160.78-3.03L160.78-3.03Q157.36 0.56 152.33 0.56L152.33 0.56Q146.6 0.56 143.25-2.98L143.25-2.98Q140.1-6.3 140.1-11.87ZM146.35-19.15Q145.38-17.9 144.88-16.21 144.37-14.53 144.37-12.56 144.37-10.6 144.83-8.73 145.28-6.86 146.23-5.42L146.23-5.42Q148.33-2.29 152.28-2.29L152.28-2.29Q156-2.29 158.05-4.74L158.05-4.74Q160.07-7.13 160.07-11.21L160.07-11.21Q160.07-18.43 155.95-20.92L155.95-20.92Q154.41-21.85 152.31-21.85 150.21-21.85 148.77-21.13 147.33-20.41 146.35-19.15ZM171.37-0.18Q170.57-0.93 170.23-1.48 169.88-2.03 169.88-2.49 169.88-2.95 170.19-3.5 170.5-4.05 170.96-4.54L170.96-4.54Q172.06-5.69 173.01-5.69L173.01-5.69Q174.01-5.69 174.77-4.88L174.77-4.88Q176.16-3.47 176.16-2.51L176.16-2.51Q176.16-1.61 175.38-0.83L175.38-0.83Q173.99 0.56 173.01 0.56L173.01 0.56Q172.18 0.56 171.37-0.18ZM206.31-3.32L206.82-1.03Q204.16 0.56 202.57 0.56L202.57 0.56Q201.06 0.56 200.33-0.05L200.33-0.05Q199.01-1.07 199.01-2.47L199.01-2.47 199.01-2.81Q196.91-1.03 194.66-0.23 192.42 0.56 190.73 0.56L190.73 0.56Q187.31 0.56 185.37-1.31 183.43-3.17 183.43-6.96L183.43-6.96 183.43-20.36 180.53-20.85 180.53-23 187.39-24.73 187.39-6.96Q187.39-4.76 188.9-3.56L188.9-3.56Q190.15-2.59 191.83-2.59L191.83-2.59Q194.59-2.59 197.01-4.05L197.01-4.05Q198.11-4.69 199.01-5.54L199.01-5.54 199.01-20.36 195.32-20.85 195.32-22.88 202.96-24.73 202.96-4.13Q202.96-2.81 204.28-2.81L204.28-2.81Q205.21-2.81 206.31-3.32L206.31-3.32ZM210.19-2.25L224.57-21.85 214.29-21.85 212.12-19.26 210.5-19.26 211.82-24.15 229.72-24.15 229.72-21.9 215.34-2.29 226.64-2.29 228.84-4.88 230.45-4.88 229.13 0 210.19 0 210.19-2.25Z" opacity="1" transform="matrix(1,0,0,1,0,0)" fill="#ffffff" class="undefined-text-0" data-fill-palette-color="primary" id="text-0"></path></svg></g></svg></g></svg></g></svg></g><g></g></svg></g></svg></g></svg></g></svg></g><defs></defs></svg><rect width="395.52" height="247.2" fill="none" stroke="none" visibility="hidden"></rect></g></svg></g></svg>